<svg width="116" height="116" viewBox="0 0 116 116" fill="none" xmlns="http://www.w3.org/2000/svg">
<rect x="0.378261" y="0.378261" width="115.243" height="115.243" fill="black" stroke="white" stroke-width="0.756522"/>
<path d="M9.22246 76.0703V42.5312H14.7325V76.0703H9.22246ZM13.0076 76.0703V71.0394H30.5438V76.0703H13.0076ZM37.9609 76.0703V42.5312H43.4709V76.0703H37.9609ZM61.8183 76.5494C59.1671 76.5494 56.9152 76.0703 55.0625 75.1121C53.2099 74.1538 51.5489 72.7483 50.0796 70.8957L53.8168 67.1585C54.7431 68.5001 55.8451 69.5541 57.1228 70.3207C58.4005 71.0554 60.0295 71.4227 62.0099 71.4227C63.8625 71.4227 65.3319 71.0394 66.4179 70.2728C67.5359 69.5062 68.0949 68.4521 68.0949 67.1106C68.0949 65.9926 67.8074 65.0823 67.2324 64.3795C66.6575 63.6768 65.8909 63.1018 64.9326 62.6547C64.0063 62.1755 62.9682 61.7603 61.8183 61.4089C60.7003 61.0256 59.5663 60.6104 58.4164 60.1632C57.2985 59.6841 56.2603 59.0931 55.3021 58.3904C54.3758 57.6877 53.6251 56.7773 53.0502 55.6594C52.4752 54.5414 52.1877 53.12 52.1877 51.3951C52.1877 49.4147 52.6669 47.7377 53.6251 46.3642C54.6153 44.9588 55.9409 43.8887 57.6019 43.154C59.2629 42.4194 61.1155 42.052 63.1598 42.052C65.3638 42.052 67.3283 42.4833 69.0531 43.3457C70.8099 44.2081 72.2314 45.3101 73.3174 46.6517L69.5802 50.3889C68.6219 49.3029 67.6157 48.5043 66.5616 47.9933C65.5395 47.4503 64.3576 47.1787 63.0161 47.1787C61.3551 47.1787 60.0455 47.5141 59.0872 48.1849C58.1609 48.8557 57.6977 49.798 57.6977 51.0118C57.6977 52.0339 57.9852 52.8644 58.5602 53.5033C59.1351 54.1102 59.8858 54.6372 60.8121 55.0844C61.7703 55.4996 62.8085 55.8989 63.9264 56.2822C65.0763 56.6655 66.2103 57.0967 67.3283 57.5759C68.4782 58.055 69.5163 58.6779 70.4426 59.4445C71.4009 60.1792 72.1675 61.1374 72.7424 62.3193C73.3174 63.5011 73.6049 64.9864 73.6049 66.7752C73.6049 69.7777 72.5348 72.1574 70.3947 73.9142C68.2865 75.671 65.4277 76.5494 61.8183 76.5494ZM77.9268 76.0703L91.7257 42.5312H95.5588L109.262 76.0703H103.321L92.5882 48.9036H94.6005L83.7722 76.0703H77.9268ZM84.7304 69.6021V64.8107H102.506V69.6021H84.7304Z" fill="white"/>
</svg>
